<?xml version="1.0" standalone="no"?><!DOCTYPE svg PUBLIC "-//W3C//DTD SVG 1.1//EN" "http://www.w3.org/Graphics/SVG/1.1/DTD/svg11.dtd"><svg t="1547173594807" class="icon" style="" viewBox="0 0 1025 1024" version="1.1" xmlns="http://www.w3.org/2000/svg" p-id="2031" xmlns:xlink="http://www.w3.org/1999/xlink" width="16.015625" height="16"><defs><style type="text/css"></style></defs><path d="M1006.971948 571.702547c18.110318 0 22.491302-10.344075 9.669684-22.973303l-481.308552-473.975188c-12.827759-12.630251-33.838266-12.630251-46.666024 0l-481.309575 473.975188c-12.820595 12.629228-8.440634 22.973303 9.670707 22.973303l98.995297 0c18.111342 0 32.996044 14.60021 32.996044 32.496647l0 324.952144c0 17.893367 14.885726 32.492554 32.996044 32.492554l197.991617 0c18.112365 0 32.997068-14.599187 32.997068-32.492554L413.004259 669.190442c0-17.894391 14.891866-32.493577 32.996044-32.493577l131.999528 0c18.103155 0 32.996044 14.599187 32.996044 32.493577l0 259.960897c0 17.893367 14.884703 32.492554 32.996044 32.492554l197.992641 0c18.110318 0 32.996044-14.599187 32.996044-32.492554L874.980606 604.199195c0-17.896437 14.884703-32.496647 32.996044-32.496647L1006.971948 571.702547z" p-id="2032" fill="#909090"></path></svg>