<?xml version="1.0" standalone="no"?><!DOCTYPE svg PUBLIC "-//W3C//DTD SVG 1.1//EN" "http://www.w3.org/Graphics/SVG/1.1/DTD/svg11.dtd"><svg t="1547190680901" class="icon" style="" viewBox="0 0 1024 1024" version="1.1" xmlns="http://www.w3.org/2000/svg" p-id="919" xmlns:xlink="http://www.w3.org/1999/xlink" width="16" height="16"><defs><style type="text/css"></style></defs><path d="M720.921636 649.758588l-45.708313 0-15.866395-15.768678c56.134801-65.452153 90.244025-150.320744 90.244025-243.30084 0-206.6812-167.554167-374.236375-374.236375-374.236375-206.649971 0-374.203131 167.555174-374.203131 374.236375 0 206.682208 167.55316 374.203131 374.203131 374.203131 92.94786 0 177.817458-34.076987 243.268603-90.179552l15.865387 15.800915 0 45.610596 287.771071 287.347967 85.845759-85.845759L720.921636 649.758588 720.921636 649.758588zM375.354578 649.758588c-143.087682 0-259.069518-115.981835-259.069518-259.069518 0-143.086675 115.981835-259.069518 259.069518-259.069518 143.119919 0 259.101754 115.982843 259.101754 259.069518C634.456332 533.776753 518.475504 649.758588 375.354578 649.758588L375.354578 649.758588z" p-id="920" fill="#909090"></path></svg>